<svg id="GM_Gradient_Brandmark" xmlns="http://www.w3.org/2000/svg" width="432" height="432" xmlns:xlink="http://www.w3.org/1999/xlink" viewBox="0 0 432 432">
 <defs>
  <style>
   .cls-1 {
        fill: url(#GM_Brandmark_Gradient__RGB_);
      }
  </style>
  <linearGradient id="GM_Brandmark_Gradient__RGB_" data-name="GM Brandmark Gradient (RGB)" x1="216" y1="432" x2="216" y2="0" gradientTransform="matrix(1, 0, 0, 1, 0, 0)" gradientUnits="userSpaceOnUse">
   <stop offset="0" stop-color="#0b8bd2">
   </stop>
   <stop offset="1" stop-color="#4ee0fd">
   </stop>
  </linearGradient>
 </defs>
 <path d="M432,61.6C432,24.25,407.79,0,370.38,0H61.62C24.26,0,0,24.2,0,61.6V370.4c0,37.35,24.21,61.6,61.62,61.6H370.38c37.36,0,61.62-24.2,61.62-61.6V61.6Zm-64.49,342.99H64.49c-24.45,0-37.07-12.59-37.07-37.06V64.47c0-24.44,12.59-37.06,37.07-37.06H367.51c24.45,0,37.07,12.59,37.07,37.06V367.53c0,24.44-12.59,37.06-37.07,37.06Zm-15.55-257.41v114.48h-31.48v-109.87c0-7.62-5.01-12.54-12.42-12.54h-17.8v122.41h-31.48v-122.41h-30.21v122.41h-31.48V111.92h119.59c21.97,0,35.27,13.61,35.27,35.26Zm-178.76-35.26v155.82c0,18.33-8.18,52.34-61.68,52.34h-13.25v-27.64h13.25c21.04-.39,29.77-9.26,30.13-24.5v-6.28h-26.34c-20.93,0-35.27-14.11-35.27-35.26v-79.22c0-21.07,14.02-35.26,35.27-35.26h57.89Zm-31.48,27.32h-17.73c-7.44,0-12.48,5.21-12.48,12.43v69.88c0,7.55,5.31,12.74,12.83,12.74h17.36v-95.06Zm55.38,180.85h154.86v-27.65H197.1v27.65Z" style="fill: url(#GM_Brandmark_Gradient__RGB_);">
 </path>
</svg>